<?xml version="1.0" standalone="no"?>
<!DOCTYPE svg PUBLIC "-//W3C//DTD SVG 20010904//EN"
 "http://www.w3.org/TR/2001/REC-SVG-20010904/DTD/svg10.dtd">
<svg version="1.0" xmlns="http://www.w3.org/2000/svg"
 width="90pt" height="90pt" viewBox="0 0 283.000000 283.000000"
 preserveAspectRatio="xMidYMid meet" style="background:#fff">

<g transform="translate(0.000000,283.000000) scale(0.100000,-0.100000)"
 stroke="none">
<path fill="#ccc" d="M1285 2519 c-98 -23 -222 -86 -285 -146 -19 -18 -38 -33 -42 -33 -19
0 -128 -186 -154 -261 -38 -113 -40 -264 -5 -379 32 -105 93 -204 171 -280 78
-76 150 -121 252 -158 64 -23 88 -26 198 -27 166 0 227 18 385 118 11 6 42 35
70 62 206 205 259 496 135 746 -31 63 -112 175 -143 197 -10 8 -30 25 -44 38
-37 34 -175 101 -248 119 -65 17 -226 19 -290 4z"/>
<path fill="#c9c9c9" d="M825 1163 c-60 -31 -131 -78 -169 -113 -34 -30 -54 -51 -111 -114
-34 -37 -121 -186 -156 -266 -43 -100 -83 -239 -94 -327 l-7 -53 1132 0 c1073
0 1131 1 1127 18 -3 9 -8 40 -12 67 -41 317 -279 674 -525 786 -34 16 -36 15
-78 -13 -76 -52 -195 -105 -287 -129 -121 -31 -323 -32 -435 -1 -119 32 -184
60 -265 113 -42 27 -79 49 -83 49 -4 -1 -20 -8 -37 -17z"/>
</g>
</svg>
